<?xml version="1.0" encoding="utf-8"?>
<!-- Generator: Adobe Illustrator 23.0.6, SVG Export Plug-In . SVG Version: 6.00 Build 0)  -->
<svg version="1.1" id="Layer_1" xmlns="http://www.w3.org/2000/svg" xmlns:xlink="http://www.w3.org/1999/xlink" x="0px" y="0px"
	 viewBox="0 0 1200 1200" enable-background="new 0 0 1200 1200" xml:space="preserve">
<g>
	<g>
		<path fill="#FD9F58" d="M379.994,803.9c0,0-236.402-10.272-299.356-108.201S44.346,433.248,230.316,310.98
			c157.822-103.762,398.256-102.592,547.48,9.327s150.705,105.599,132.477,157.723S379.994,803.9,379.994,803.9z"/>
		<g>
			<g>
				<path fill="#FFC075" d="M242.421,628.538C242.421,628.539,242.421,628.539,242.421,628.538
					c2.366,3.415,5.908,6.549,10.061,6.446c4.653-0.115,8.187-4.166,10.587-8.154c6.273-10.422,9.276-35.57-9.564-34.077
					C236.739,594.082,235.073,617.929,242.421,628.538z"/>
			</g>
			<g>
				<path fill="#FFC075" d="M131.919,473.424c0.001,0,0.002,0,0.002,0c6.875,1.163,11.672,8.187,11.699,15.001
					c0.01,2.453-0.598,4.879-1.95,6.993C123.842,523.307,101.813,468.339,131.919,473.424z"/>
			</g>
			<g>
				<path fill="#FFC075" d="M396.368,354.721C396.368,354.721,396.368,354.721,396.368,354.721
					c4.604-1.612,7.983-5.928,9.095-10.677c0.502-2.144,0.566-4.495-0.441-6.453C393.443,315.067,365.819,365.42,396.368,354.721z"
					/>
			</g>
			<g>
				<path fill="#FFC075" d="M565.272,288.146L565.272,288.146c3.181-3.19,2.004-8.738-0.636-12.389
					c-4.565-6.312-18.823-13.745-21.344-2.44C541.469,281.489,558.285,295.152,565.272,288.146z"/>
			</g>
			<g>
				<path fill="#FFC075" d="M767.817,344.612c0,0.001,0,0.003,0,0.004c0.01,1.313-0.227,2.62-0.758,3.858
					c-4.964,11.584-11.519,2.442-10.896-5.206C757.15,331.167,767.714,332.177,767.817,344.612z"/>
			</g>
			<g>
				<path fill="#FFC075" d="M501.537,441.721C501.537,441.721,501.537,441.721,501.537,441.721
					c3.606-2.018,8.823-3.411,11.315-0.115c1.519,2.009,1.16,4.822,0.661,7.291c-1.2,5.941-2.894,12.006-6.758,16.676
					c-3.863,4.67-10.405,7.596-16.133,5.618c-3.349-1.157-5.969-3.766-8.332-6.405C474.923,456.558,494.803,445.49,501.537,441.721z
					"/>
			</g>
			<g>
				<path fill="#FFC075" d="M215.108,696.013c4.122,25.406-24.555,2.529-24.142-10.368
					C191.679,663.384,212.856,682.132,215.108,696.013z"/>
			</g>
			<g>
				<path fill="#FFC075" d="M318.32,498.331c2.636-8.091,8.735-14.988,16.442-18.595c3.142,10.978-0.786,23.644-9.587,30.918
					c-2.036,1.682-4.745,3.149-7.218,2.221c-4.509-1.694-3.198-8.375-1.062-12.693"/>
			</g>
			<g>
				<path fill="#FFC075" d="M265.586,339.301c1.569-0.33,2.972-1.145,4.105-2.255c2.577-2.525,3.759-6.576,2.321-9.927
					c0,0,0,0,0-0.001C264.016,308.493,243.307,343.991,265.586,339.301z"/>
			</g>
			<g>
				<path fill="#FFC075" d="M586.761,385.463c3.481-3.618,7.179-7.374,11.98-8.845c4.801-1.471,10.987,0.283,12.688,5.007
					c0.9,2.497,0.393,5.314-0.691,7.737c-2.356,5.265-8.012,9.303-13.716,8.45c-5.705-0.854-10.088-7.683-7.448-12.812"/>
			</g>
		</g>
		<path fill="#FFDC8E" d="M764.316,310.689c-12.821-8.746-26.271-16.67-40.179-23.896c-34.647,2.092-70.065,8.339-104.818,18.386
			c-20.17-23.965-42.94-45.572-67.369-64.806c3.546-0.632,7.087-1.321,10.637-1.879c-4.997-0.591-10.009-1.084-15.03-1.532
			c-10.141-0.906-20.322-1.532-30.525-1.856c-16.278-0.517-32.605-0.311-48.887,0.647c-28.502,9.548-56.53,21.487-83.318,35.573
			c-9.665-5.884-19.555-11.419-29.67-16.567c-12.638,3.59-25.079,7.678-37.29,12.234c12.863,6.711,25.604,13.572,38.209,20.613
			c-40.195,24.464-76.595,54.117-105.965,88.551c-24.57-10.453-50.157-18.119-76.729-22.246
			c-11.484,9.929-22.174,20.013-31.934,30.24c30.104,2.914,59.792,8.931,88.722,17.64c-37.161,52.784-58.268,115.106-53.871,185.463
			c8.529-68.236,36.209-127.99,76.407-178.101c43.103,15.244,84.262,36.366,122.295,61.876
			c-33.107,47.96-53.072,103.91-53.072,166.286c9.717-58.304,34.37-110.431,69.241-155.03c12.176,8.773,24.008,17.983,35.432,27.603
			c-10.106-11.229-20.562-22.178-31.352-32.741c29.007-35.808,64.69-66.562,104.496-91.569
			c12.341,10.581,24.403,21.615,36.08,33.291c-8.567-13.24-17.849-26.045-27.704-38.417c37.174-22.284,77.72-39.585,119.652-51.416
			c7.211,5.801,14.473,11.502,21.827,17.017c-4.244-6.601-8.727-13.02-13.347-19.329C678.33,315.646,721.66,310.069,764.316,310.689
			z M380.554,463.221c-33.183-30.501-69.358-57.062-108.292-76.748c31.138-33.353,68.128-61.673,108.557-84.664
			c34.58,20.393,67.923,42.541,99.438,67.616C441.482,395.39,407.201,426.888,380.554,463.221z M492.344,361.614
			c-24.719-27.982-52.772-53.127-83.532-74.613c38.204-18.712,78.86-32.808,120.22-42.045
			c25.336,21.189,50.157,43.411,75.408,64.771C565.251,322.356,527.184,339.816,492.344,361.614z"/>
		<path fill="#FFC075" d="M379.994,803.9c143.953-6.517,472.173-263.312,499.297-287.995
			c44.532-40.526,34.434-92.346,10.956-106.433s-170.652-65.918-334.951,31.304C413.295,524.803,256.797,809.477,379.994,803.9z"/>
		<path fill="#FFE8BB" d="M410.102,784.087c129.996-5.913,426.393-238.914,450.886-261.31c40.214-36.771,31.096-83.79,9.894-96.571
			c-21.202-12.781-154.106-59.81-302.476,28.403C440.173,530.851,298.85,789.147,410.102,784.087z"/>
		<g>
			<g>
				<path fill="#FFC075" d="M412.257,759.887c1.448-0.457,2.651-1.54,3.585-2.795c1.765-2.372,2.683-5.601,1.923-8.582
					s-3.433-5.49-6.303-5.388c0,0,0,0,0,0C402.427,743.446,402.682,762.911,412.257,759.887z"/>
			</g>
			<g>
				<path fill="#FFC075" d="M842.927,495.255C842.927,495.255,842.927,495.255,842.927,495.255c2.417,3.135,7.366,3.97,10.63,1.731
					c3.263-2.239,4.243-7.239,1.997-10.497C849.952,478.364,836.153,486.468,842.927,495.255z"/>
			</g>
			<g>
				<path fill="#FFC075" d="M728.226,526.819C728.226,526.819,728.226,526.819,728.226,526.819c1.208,1.567,3.683,1.985,5.315,0.865
					c1.632-1.119,2.121-3.62,0.998-5.249C731.739,518.374,724.839,522.426,728.226,526.819z"/>
			</g>
			<g>
				<path fill="#FFC075" d="M859.804,466.999C859.804,467,859.804,467,859.804,466.999c1.208,1.567,3.683,1.985,5.315,0.865
					c1.632-1.119,2.121-3.62,0.998-5.249C863.317,458.554,856.417,462.606,859.804,466.999z"/>
			</g>
			<g>
				<path fill="#FFC075" d="M426.924,740.265C426.924,740.266,426.924,740.266,426.924,740.265c1.208,1.567,3.683,1.985,5.315,0.865
					c1.632-1.119,2.121-3.62,0.998-5.249C430.437,731.82,423.537,735.872,426.924,740.265z"/>
			</g>
			<g>
				<path fill="#FFC075" d="M444.091,762.601C444.092,762.601,444.092,762.601,444.091,762.601c2.258-2.399,2.183-6.714,0.135-9.435
					c-3.654-4.854-13.829-4.383-14.287,2.931C429.519,762.823,439.876,767.079,444.091,762.601z"/>
			</g>
			<g>
				<path fill="#FFC075" d="M396.993,736.637c-2.22,12.762-17.541,10.277-15.063-1.793c0.758-3.692,6.216-10.754,10.042-11.446
					C398.986,722.13,397.745,732.312,396.993,736.637z"/>
			</g>
			<g>
				<path fill="#FFC075" d="M518.453,630.984C518.453,630.984,518.453,630.984,518.453,630.984c2.97,1.614,5.172,4.408,6.601,7.472
					c1.233,2.642,1.941,5.705,1.031,8.475c-1.091,3.322-4.331,5.565-7.712,6.456c-1.128,0.298-2.335,0.47-3.454,0.137
					c-4.885-1.453-11.245-10.736-10.933-15.938C504.404,630.625,512.946,627.992,518.453,630.984z"/>
			</g>
			<g>
				<path fill="#FFC075" d="M560.528,510.889C560.528,510.889,560.528,510.889,560.528,510.889c-0.642,4.824,3.97,9.196,8.816,9.648
					c4.846,0.452,9.523-2.099,13.111-5.387c1.964-1.8,3.749-3.917,4.544-6.459s0.422-5.576-1.463-7.458
					c-0.886-0.885-2.035-1.463-3.213-1.889C574.384,496.474,561.764,501.603,560.528,510.889z"/>
			</g>
			<g>
				<path fill="#FFC075" d="M742.574,565.362C742.574,565.362,742.574,565.362,742.574,565.362
					c-0.065,3.781,1.664,7.407,4.002,10.379c1.726,2.194,3.956,4.197,6.698,4.722c4.39,0.842,8.577-2.324,11.245-5.91
					c1.057-1.421,2.001-2.977,2.362-4.711c0.486-2.331-0.135-4.777-1.205-6.904C760.53,552.705,742.821,550.937,742.574,565.362z"/>
			</g>
			<g>
				<path fill="#FFC075" d="M764.198,442.279C764.198,442.279,764.198,442.279,764.198,442.279
					c-0.116,2.221,1.169,4.351,2.935,5.703s3.958,2.029,6.143,2.445c4.876,0.93,10.474,0.467,13.957-3.07
					c0.848-0.861,1.546-1.895,1.881-3.056c0.818-2.838-0.678-5.894-2.791-7.958C780.278,430.437,764.755,431.603,764.198,442.279z"
					/>
			</g>
			<g>
				<path fill="#FFC075" d="M758.89,476.423C758.89,476.423,758.89,476.423,758.89,476.423c1.745,3.766,7.302,5.379,10.396,2.613
					c0.944-0.844,1.593-1.971,2.099-3.132C777.497,461.881,752.514,462.661,758.89,476.423z"/>
			</g>
			<g>
				<path fill="#FFC075" d="M819.981,503.762C819.981,503.762,819.981,503.762,819.981,503.762c0.009,1.774-0.458,3.531-1.206,5.14
					c-1.445,3.112-4.139,5.805-7.5,6.493c-4.849,0.993-9.943-2.79-11.02-7.621C796.833,492.434,819.905,488.841,819.981,503.762z"/>
			</g>
		</g>
	</g>
	<g>
		<g>
			<path fill="#FFC075" d="M658.589,950.628c126.72-31.745,358.862-239.702,377.132-261.885
				c55.898-67.87,11.341-98.667-12.787-103.819c-24.128-5.152-167.045-12.579-291.166,84.869
				C624.493,754.017,550.141,977.795,658.589,950.628z"/>
			<path fill="#FFDC8E" d="M680.877,931.409c114.427-28.686,325.181-243.765,341.88-263.68
				c27.416-32.698,8.555-63.027-13.248-67.721c-21.802-4.694-150.914-11.553-262.904,76.732
				C649.813,753.043,582.95,955.959,680.877,931.409z"/>
		</g>
		<g>
			<path fill="#FFC075" d="M718.355,962.858c135.36-33.909,383.331-256.046,402.846-279.741
				c59.709-72.498,12.115-105.394-13.658-110.898c-25.773-5.503-178.435-13.437-311.018,90.656
				C681.934,752.841,602.513,991.878,718.355,962.858z"/>
			<g>
				<g>
					<path fill="#FFC075" d="M645.288,871.898c1.005-0.317,1.84-1.069,2.488-1.94c1.225-1.647,1.862-3.888,1.335-5.956
						c-0.528-2.069-2.383-3.811-4.375-3.739c0,0,0,0,0,0C638.466,860.487,638.643,873.997,645.288,871.898z"/>
				</g>
				<g>
					<path fill="#FFC075" d="M733.493,703.428C733.494,703.428,733.494,703.428,733.493,703.428c2.417,3.135,7.366,3.97,10.63,1.731
						c3.263-2.239,4.243-7.239,1.997-10.497C740.519,686.537,726.72,694.641,733.493,703.428z"/>
				</g>
				<g>
					<path fill="#FFC075" d="M712.599,734.992C712.599,734.992,712.599,734.992,712.599,734.992
						c1.208,1.567,3.683,1.985,5.315,0.865c1.632-1.119,2.121-3.62,0.998-5.249C716.112,726.546,709.212,730.598,712.599,734.992z"
						/>
				</g>
				<g>
					<path fill="#FFC075" d="M761.313,677.454C761.313,677.454,761.313,677.454,761.313,677.454
						c1.208,1.567,3.683,1.985,5.315,0.865c1.632-1.119,2.121-3.62,0.998-5.249C764.826,669.008,757.926,673.06,761.313,677.454z"/>
				</g>
				<g>
					<path fill="#FFC075" d="M667.384,873.782C667.384,873.782,667.384,873.782,667.384,873.782c1.567-1.665,1.516-4.66,0.094-6.548
						c-2.536-3.369-9.598-3.042-9.916,2.034C657.27,873.936,664.458,876.89,667.384,873.782z"/>
				</g>
			</g>
			<path fill="#FFE8BB" d="M742.163,942.328c122.229-30.642,347.353-260.386,365.191-281.659
				c29.286-34.927,9.138-67.325-14.151-72.338c-23.289-5.014-161.203-12.341-280.83,81.964
				C708.981,751.801,637.558,968.552,742.163,942.328z"/>
		</g>
		<g>
			<g>
				<path fill="#FFC075" d="M1044.861,665.695C1044.861,665.695,1044.861,665.695,1044.861,665.695
					c-0.971,2.274,0.392,4.82,1.766,6.876c0.733,1.097,1.532,2.227,2.709,2.824c1.533,0.778,3.374,0.492,5.048,0.1
					c2.696-0.631,5.8-2,6.187-4.741C1061.437,664.623,1047.473,659.583,1044.861,665.695z"/>
			</g>
			<g>
				<path fill="#FFC075" d="M1078.335,651.625c0.906,0.688,1.855,1.371,2.954,1.664c0.001,0,0.002,0,0.002,0.001
					c9.492,2.519,15.171-12.055,5.043-15.417C1075.809,634.378,1068.912,644.471,1078.335,651.625z"/>
			</g>
			<g>
				<path fill="#FFC075" d="M817.438,769.057C817.438,769.057,817.438,769.057,817.438,769.057c0.213,1.703-0.303,3.41-0.931,5.007
					c-1.555,3.951-3.989,7.753-7.68,9.852c-2.809,1.597-6.691,1.94-9.039-0.28c-0.931-0.881-1.517-2.058-2.059-3.22
					c-2.757-5.913-3.822-12.895,2.801-16.047C805.685,761.915,816.47,761.323,817.438,769.057z"/>
			</g>
			<g>
				<path fill="#FFC075" d="M735.237,900.837c0.211,1.993,1.235,3.826,2.532,5.355c2.45,2.888,6.134,4.896,9.914,4.664
					c3.78-0.232,7.442-3.062,7.994-6.809c0,0,0,0,0,0C757.414,892.252,733.84,887.659,735.237,900.837z"/>
			</g>
			<g>
				<path fill="#FFC075" d="M755.997,809.783c-1.581,1.8-3.069,3.874-3.26,6.262c-0.118,1.469,0.274,2.943,0.9,4.277
					c2.066,4.397,6.741,7.313,11.583,7.709s9.729-1.564,13.312-4.843c3.874-3.545,6.272-9.611,3.518-14.082c0,0,0,0,0,0
					c-2.738-4.447-9.511-5.689-14.331-5.825C762.308,803.128,759.561,805.726,755.997,809.783z"/>
			</g>
			<g>
				<path fill="#FFC075" d="M725.657,872.224C725.657,872.224,725.657,872.224,725.657,872.224c2.417,3.135,7.366,3.97,10.63,1.731
					c3.263-2.239,4.243-7.239,1.997-10.497C732.683,855.333,718.884,863.437,725.657,872.224z"/>
			</g>
			<g>
				<path fill="#FFC075" d="M712.905,919.377C712.905,919.377,712.905,919.377,712.905,919.377c1.208,1.567,3.683,1.985,5.315,0.865
					c1.632-1.119,2.121-3.62,0.998-5.249C716.418,910.931,709.519,914.983,712.905,919.377z"/>
			</g>
			<g>
				<path fill="#FFC075" d="M906.317,788.048C906.317,788.048,906.317,788.048,906.317,788.048c1.208,1.567,3.683,1.985,5.315,0.865
					c1.632-1.119,2.121-3.62,0.998-5.249C909.83,779.602,902.93,783.654,906.317,788.048z"/>
			</g>
			<g>
				<path fill="#FFC075" d="M949.436,765.012C949.436,765.012,949.436,765.012,949.436,765.012c1.208,1.567,3.683,1.985,5.315,0.865
					c1.632-1.119,2.121-3.62,0.998-5.249C952.949,756.567,946.049,760.619,949.436,765.012z"/>
			</g>
			<g>
				<path fill="#FFC075" d="M1033.395,651.429C1033.395,651.429,1033.395,651.429,1033.395,651.429
					c1.208,1.567,3.683,1.985,5.315,0.865c1.632-1.119,2.121-3.62,0.998-5.249C1036.908,642.983,1030.009,647.035,1033.395,651.429z
					"/>
			</g>
			<g>
				<path fill="#FFC075" d="M1021.136,673.675C1021.136,673.675,1021.136,673.675,1021.136,673.675
					c1.208,1.567,3.683,1.985,5.315,0.865c1.632-1.119,2.121-3.62,0.998-5.249C1024.649,665.23,1017.749,669.282,1021.136,673.675z"
					/>
			</g>
			<g>
				<path fill="#FFC075" d="M1083.702,626.735C1083.702,626.735,1083.702,626.735,1083.702,626.735
					c1.208,1.567,3.683,1.985,5.315,0.865c1.632-1.119,2.121-3.62,0.998-5.249C1087.215,618.289,1080.315,622.341,1083.702,626.735z
					"/>
			</g>
			<g>
				<path fill="#FFC075" d="M1082.011,671.686C1082.011,671.686,1082.011,671.686,1082.011,671.686
					c1.208,1.567,3.683,1.985,5.315,0.865c1.632-1.119,2.121-3.62,0.998-5.249C1085.524,663.241,1078.624,667.293,1082.011,671.686z
					"/>
			</g>
			<g>
				<path fill="#FFC075" d="M1057.607,697.05C1057.607,697.05,1057.607,697.051,1057.607,697.05
					c1.208,1.567,3.683,1.985,5.315,0.865c1.632-1.119,2.121-3.62,0.998-5.249C1061.12,688.605,1054.22,692.657,1057.607,697.05z"/>
			</g>
			<g>
				<path fill="#FFC075" d="M756.683,877.499C756.683,877.5,756.683,877.5,756.683,877.499c1.208,1.567,3.683,1.985,5.315,0.865
					c1.632-1.119,2.121-3.62,0.998-5.249C760.196,869.054,753.296,873.106,756.683,877.499z"/>
			</g>
			<g>
				<path fill="#FFC075" d="M779.28,895.234C779.28,895.235,779.28,895.235,779.28,895.234c2.366,3.534,7.596,4.529,11.366,2.562
					c6.725-3.51,8.555-16.821-0.173-19.265C782.446,876.284,774.864,888.636,779.28,895.234z"/>
			</g>
			<g>
				<path fill="#FFC075" d="M1039.492,611.797c-0.605,3.779,2.353,7.562,6.049,8.558c3.696,0.995,7.754-0.425,10.603-2.982
					c2.871-2.576,4.624-7.218,2.242-10.251c-1.347-1.714-3.594-2.39-5.695-2.971c-0.001,0-0.002-0.001-0.003-0.001
					C1046.999,602.576,1040.525,605.349,1039.492,611.797z"/>
			</g>
			<g>
				<path fill="#FFC075" d="M1002.522,663.913c4.358,4.753,2.963,13.467-2.661,16.622c-2.309,1.295-5.006,1.692-7.644,1.901
					c-1.211,0.096-2.471,0.151-3.598-0.303c-1.201-0.483-2.117-1.495-2.816-2.585c0,0,0,0,0,0
					C978.836,668.692,992.667,653.164,1002.522,663.913z"/>
			</g>
			<g>
				<path fill="#FFC075" d="M988.407,638.127c12.893,0.196,8.406-12.535,0.527-17.118c-5.976-3.477-14.619-5-21.421-3.671
					c-5.598,1.093-10.041,3.748-7.698,9.907C963.755,637.605,979.519,637.992,988.407,638.127z"/>
			</g>
			<g>
				<path fill="#FFC075" d="M928.255,786.105C928.255,786.105,928.255,786.105,928.255,786.105c1.708-0.788,3.792-1.412,5.389-0.419
					c1.87,1.163,1.982,3.835,1.576,5.999c-1.112,5.936-4.575,11.399-9.469,14.938c-5.114,3.698-14.728,2.12-13.685-5.887
					C912.826,794.905,923.559,788.272,928.255,786.105z"/>
			</g>
			<g>
				<path fill="#FFC075" d="M919.141,766.533C919.141,766.533,919.141,766.533,919.141,766.533
					c3.135,3.163,8.511,3.853,12.275,1.473c6.927-4.38,5.016-16.022-3.514-17.102C920.826,750.009,913.696,761.039,919.141,766.533z
					"/>
			</g>
		</g>
	</g>
</g>
</svg>
