<?xml version="1.0" encoding="utf-8"?>
<!-- Generator: Adobe Illustrator 23.1.1, SVG Export Plug-In . SVG Version: 6.00 Build 0)  -->
<svg version="1.1" xmlns="http://www.w3.org/2000/svg" xmlns:xlink="http://www.w3.org/1999/xlink" x="0px" y="0px"
	 viewBox="0 0 1920 1080" style="enable-background:new 0 0 1920 1080;" xml:space="preserve">
<style type="text/css">
	.st0{fill:#1B173F;}
	.st1{fill:#FFBD50;}
	.st2{fill:#E59042;}
	.st3{fill:#FFF050;}
	.st4{fill:#FFFFFF;}
	.st5{fill:#FFA950;}
	.st6{fill:#D8D8D8;}
</style>
<g id="Calque_1">
</g>
<g id="Calque_2">
	<ellipse class="st0" cx="952" cy="892.2" rx="369" ry="74.5"/>
	<polygon class="st1" points="951.4,448 951.4,871.7 1203.6,871.7 1203.6,547.4 	"/>
	<polygon class="st1" points="1076.9,471.6 1076.9,336.2 951.4,238 951.4,421.9 	"/>
	
		<rect x="950.8" y="623.1" transform="matrix(-1 -4.489798e-11 4.489798e-11 -1 1968.6172 1494.7188)" class="st2" width="67.1" height="248.5"/>
	<polygon class="st3" points="951.4,448 951.4,871.7 699.2,871.7 699.2,547.4 	"/>
	<polygon class="st3" points="825.9,471.6 825.9,336.2 951.4,238 951.4,421.9 	"/>
	<path class="st4" d="M965.3,172c0,9.2-2.6,16.5-7.4,22.1c-4.8,5.5-12.1,8.1-22.1,8.1c-7,0-13.2-2.2-19.1-6.6
		c-5.9-4.4-9.9-10.7-12.1-18l14.7-8.5l0,0c3.7,10.3,9.2,15.8,15.8,15.4c3.3,0,6.2-1.1,8.1-3.3c1.8-2.2,2.9-5.5,2.9-9.9v-5.5V98.3
		h19.1v63.4V172z"/>
	<rect x="884.9" y="623.1" class="st5" width="67.1" height="248.5"/>
	<g>
		<path class="st5" d="M951.1,200.2c-0.4,0-0.7,0-1.1,0.1c-0.3,0-0.6,0.1-0.9,0.1c-0.4,0.1-0.7,0.1-1.1,0.2
			c-0.3,0.1-0.6,0.1-0.8,0.2c-0.4,0.1-0.7,0.2-1.1,0.3c-0.3,0.1-0.6,0.2-0.8,0.3c-0.3,0.1-0.7,0.2-1,0.4c-0.3,0.1-0.6,0.3-0.9,0.4
			c-0.3,0.1-0.6,0.3-0.8,0.4c-0.3,0.2-0.7,0.4-1,0.6c-0.2,0.1-0.5,0.3-0.7,0.4c-0.4,0.2-0.7,0.5-1.1,0.7c-0.1,0.1-0.2,0.2-0.4,0.3
			L804.1,310.1c-8.9,7-10.5,19.8-3.6,28.8c4,5.2,10.1,7.9,16.2,7.9c4.4,0,8.8-1.4,12.6-4.3l122.2-95.3v-46.9
			C951.4,200.2,951.2,200.2,951.1,200.2z"/>
		<path class="st2" d="M1074.9,342.4c3.7,2.9,8.2,4.3,12.6,4.3c6.1,0,12.1-2.7,16.2-7.9c7-8.9,5.4-21.8-3.6-28.8L964.7,204.5
			c-0.1-0.1-0.2-0.2-0.4-0.3c-0.3-0.3-0.7-0.5-1.1-0.7c-0.2-0.1-0.5-0.3-0.7-0.4c-0.3-0.2-0.7-0.4-1-0.6c-0.3-0.1-0.6-0.3-0.8-0.4
			c-0.3-0.1-0.6-0.3-0.9-0.4c-0.3-0.1-0.7-0.3-1-0.4c-0.3-0.1-0.6-0.2-0.8-0.3c-0.4-0.1-0.7-0.2-1.1-0.3c-0.3-0.1-0.5-0.1-0.8-0.2
			c-0.4-0.1-0.7-0.1-1.1-0.2c-0.3,0-0.6-0.1-0.9-0.1c-0.4,0-0.7-0.1-1.1-0.1c-0.3,0-0.6,0-1,0c-0.2,0-0.4,0-0.6,0v46.9l2.1,1.5
			L1074.9,342.4z"/>
	</g>
	<g>
		<path class="st5" d="M950.8,406.6c-0.3,0-0.7,0-1,0c-0.3,0-0.7,0-1,0.1c-0.3,0-0.7,0.1-1,0.1c-0.3,0-0.7,0.1-1,0.2
			c-0.3,0.1-0.7,0.2-1,0.2c-0.3,0.1-0.6,0.2-0.9,0.2c-0.4,0.1-0.7,0.2-1.1,0.4c-0.2,0.1-0.4,0.1-0.7,0.2L674.8,516.2
			c-10.5,4.2-15.6,16.2-11.4,26.7c3.2,8,10.9,12.8,19,12.8c2.5,0,5.1-0.5,7.7-1.5l260.7-105l0.6,0.3v-42.8
			C951.3,406.6,951.1,406.6,950.8,406.6z"/>
		<path class="st2" d="M1218.9,555.7c8.1,0,15.8-4.9,19-12.8c4.2-10.5-0.9-22.4-11.4-26.7L958.2,408.1c-0.2-0.1-0.4-0.1-0.7-0.2
			c-0.4-0.1-0.7-0.3-1.1-0.4c-0.3-0.1-0.6-0.2-0.9-0.2c-0.3-0.1-0.7-0.2-1-0.2c-0.3-0.1-0.7-0.1-1-0.2c-0.3,0-0.7-0.1-1-0.1
			c-0.3,0-0.7-0.1-1-0.1c-0.1,0-0.2,0-0.4,0v42.8l260.1,104.8C1213.7,555.2,1216.3,555.7,1218.9,555.7z"/>
	</g>
	<g>
		<path class="st5" d="M915.4,344.3c0,19.9,16.1,36,36,36v-72.1C931.6,308.2,915.4,324.4,915.4,344.3z"/>
		<path class="st2" d="M987.5,344.3c0-19.9-16.1-36-36-36v72.1C971.4,380.3,987.5,364.2,987.5,344.3z"/>
	</g>
	<path class="st6" d="M960.2,98.3c0,0,1.2,74.5,0,83.2s-12.6,19.9-24.8,20.7c0,0,39.7,1.1,39.7-34.3c0-33.5,0-69.6,0-69.6H960.2z"/>
</g>
</svg>
