<?xml version="1.0" encoding="utf-8"?>
<!-- Generator: Adobe Illustrator 23.1.1, SVG Export Plug-In . SVG Version: 6.00 Build 0)  -->
<svg version="1.1" xmlns="http://www.w3.org/2000/svg" xmlns:xlink="http://www.w3.org/1999/xlink" x="0px" y="0px"
	 viewBox="0 0 1920 1080" style="enable-background:new 0 0 1920 1080;" xml:space="preserve">
<style type="text/css">
	.st0{display:none;}
	.st1{display:inline;}
	.st2{fill:url(#SVGID_1_);}
	.st3{fill:#312866;}
</style>
<g id="Calque_1" class="st0">
	<g id="XixgHn_1_" class="st1">
		
			<image style="overflow:visible;" width="340" height="270" id="XixgHn" xlink:href="7F1CB4142CED5599.jpg"  transform="matrix(3.2074 0 0 3.2074 388 53)">
		</image>
	</g>
</g>
<g id="Calque_2">
	<g>
		<g>
			<radialGradient id="SVGID_1_" cx="932.4863" cy="294.9055" r="290.1559" gradientUnits="userSpaceOnUse">
				<stop  offset="0" style="stop-color:#FEF150"/>
				<stop  offset="0.2375" style="stop-color:#FEED50"/>
				<stop  offset="0.4751" style="stop-color:#FEE150"/>
				<stop  offset="0.7128" style="stop-color:#FFCD50"/>
				<stop  offset="0.9494" style="stop-color:#FFB150"/>
				<stop  offset="1" style="stop-color:#FFAA50"/>
			</radialGradient>
			<path class="st2" d="M717.7,473.7l67,20l-0.1,0.7l0.6-0.2l98.5-128.1l82.3,28.5l69.7,60.9l60.4,20.2l135.2,59.1
				c21.8-44.3,34.1-94.2,34.1-146.9c0-183.9-149-332.9-332.9-332.9S599.6,204,599.6,387.9c0,44.8,8.9,87.5,24.9,126.5l46.6-56.9
				L717.7,473.7z"/>
		</g>
		<g>
			<path class="st3" d="M1665.3,736.8c0,0-11.7-16.8-32.5-36.1c-20.8-19.3-48.2-25.3-48.2-25.3c7.2,1.2-30.1-15.7-29.9-16.3
				c0.2-0.5-71-51.9-71.3-52.3l-92.2-40.3L1357,555l-39.4-34.5l-46.6-16.1l-27.5,35.7l-12.2-5.3l-135.2-59.1l-60.4-20.2L966,394.6
				l-82.3-28.5l-98.5,128.1l-0.6,0.2l0.1-0.7l-67-20l-46.6-16.1l-46.6,56.9l-19.8,24.2l-23.3,8.1c0,0-25.8,32.2-37.4,40.3
				c-11.7,8.1-34.1,20.9-34.1,20.9L453.7,657l-101.1,52.4c0,0,0.8,0.7-19.1,21.7c-4.2,4.4,25.2,14.6,90.8,21.1l-84.4,43.7
				c0,0,1.5,1.3-33.8,38.3c-8.7,9.1,64,32.2,225.5,42.5c72.6,4.7,163,36.9,243.3,40.2c100.7,4.1,201,6.6,284.3,6.6
				c53.9,0,69.7-12.1,65.1-29.5c-5.7-11-13.9-22.7-25.7-34.9c-11.8-11.2-26.4-22.8-41.3-33.9c-12.9-8.6-27.8-17.3-45-25.9
				c-116.9-58.1-183.7-87.9-215.1-107.3c-42.3-26.2-20.1-33.6,31.1-66.6c105.4-68,145.8-72.2,101.1-87.1
				c-14.6-4.9-23.4-6.4-23.4-6.4s75.5,10.1,50.7,32.3c-35.9,32.3-89,71.9-89,71.9s-19.2,19.3,10.6,29.8
				c50.6,17.8,82.7,26.8,138.8,43.9c31.2,9.5,69.7,21.6,122.9,39.1c76.9,25.3,134.8,45.7,189.5,70.6c14.2,0.2,27.9,0.3,40.9,0.3
				c16.3,0,26.4-2,32-5.3c63.7-6.2,124.5-18.8,178-38c0,0-5-7.2-14.4-18.5C1601.4,754.7,1635.4,747.6,1665.3,736.8z"/>
		</g>
	</g>
</g>
</svg>
