<?xml version="1.0" encoding="utf-8"?>
<!-- Generator: Adobe Illustrator 23.1.1, SVG Export Plug-In . SVG Version: 6.00 Build 0)  -->
<svg version="1.1" id="Layer_3" xmlns="http://www.w3.org/2000/svg" xmlns:xlink="http://www.w3.org/1999/xlink" x="0px" y="0px"
	 viewBox="0 0 155.2 41.6" style="enable-background:new 0 0 155.2 41.6;" xml:space="preserve">
<style type="text/css">
	.st0{fill:#261F50;}
	.st1{fill:#FFFFFF;}
</style>
<title>logo</title>
<g>
	<g>
		<path class="st0" d="M14.7,40.5c-2.7,0-5.1-0.9-7.3-2.5c-2.2-1.7-3.7-3.9-4.5-6.7l-0.8-2.7L12.3,23l1.3,3.7c0.2,0.4,0.3,0.7,0.4,1
			V27V1.1h12.2v24.8v2.9c0,3.4-1,6.2-2.9,8.3C21.3,39.4,18.4,40.5,14.7,40.5z"/>
	</g>
	<g>
		<polygon class="st0" points="43.8,30.8 21.6,30.8 21.6,1.2 43.8,1.2 43.8,13.1 43.2,13.1 43.2,18.9 43.8,18.9 		"/>
	</g>
	<g>
		<path class="st0" d="M50.9,31.3c-2.4,0-4.6-0.5-6.6-1.5s-3.6-2.3-4.7-3.8L38,23.5l4.8-4.8c-3.5-2.5-4.2-5.6-4.2-7.8
			c0-2.9,1.2-5.5,3.6-7.5C44.3,1.6,47,0.7,50,0.7s5.7,0.9,8,2.6l0.8-0.8l-0.5,1C58.9,4,59.5,4.6,60,5.2l2.1,2.4l-4.9,5l0,0
			c1,0.6,1.8,1.3,2.5,1.9c0.8,0.8,1.4,1.7,1.9,2.7c0.6,1.2,0.9,2.5,0.9,3.8c0,2.9-1.3,5.5-3.7,7.5C56.7,30.4,54,31.3,50.9,31.3z
			 M51.4,19.4L51.4,19.4L51.4,19.4z"/>
	</g>
	<g>
		<path class="st0" d="M70,31.3c-3.8,0-6.9-1.1-9.3-3.4c-2.4-2.2-3.7-5.3-3.8-9.1v-0.1V1.2h12.2v17.2c0,0.7,0.1,0.9,0.2,1l0,0
			c0,0,0.2,0.1,0.7,0.1c0.4,0,0.7-0.1,0.8-0.1c0-0.1,0.1-0.4,0.1-1V1.2h12.2v17.7c-0.1,3.8-1.4,6.8-3.8,9
			C76.9,30.2,73.8,31.3,70,31.3z"/>
	</g>
	<g>
		<path class="st0" d="M90.5,31.3c-2.4,0-4.6-0.5-6.6-1.5s-3.6-2.3-4.7-3.8l-1.7-2.4l4.8-4.8c-3.5-2.5-4.2-5.6-4.2-7.8
			c0-2.9,1.2-5.5,3.6-7.5c2.2-1.9,4.9-2.8,7.9-2.8s5.7,0.9,8,2.6L98,3.6c0.6,0.5,1.1,1,1.7,1.6l2.1,2.4l-4.9,5l0,0
			c1,0.6,1.8,1.3,2.5,1.9c0.8,0.8,1.4,1.7,1.9,2.7c0.6,1.2,0.9,2.5,0.9,3.8c0,2.9-1.3,5.5-3.7,7.5C96.3,30.4,93.6,31.3,90.5,31.3z"
			/>
	</g>
	<g>
		<path class="st0" d="M102.6,31.3L102.6,31.3c-1.6,0-3-0.6-4.1-1.7c-1.2-1.1-1.8-2.6-1.8-4.2c0-1.5,0.6-2.9,1.7-4.1
			s2.6-1.8,4.2-1.8s3,0.6,4.1,1.8c1.1,1.1,1.7,2.5,1.7,4.1s-0.6,3-1.7,4.1C105.5,30.7,104.1,31.3,102.6,31.3L102.6,31.3z
			 M102.6,24.3c-0.3,0-0.7,0.1-0.9,0.4c-0.2,0.2-0.3,0.5-0.3,0.8s0.2,0.7,0.3,0.8c0.2,0.2,0.5,0.4,0.9,0.4V24.3z M102.6,24.3v2.3
			c0.3,0,0.6-0.2,0.8-0.4c0.1-0.1,0.3-0.5,0.3-0.8s-0.1-0.7-0.4-0.9C103.2,24.4,102.9,24.3,102.6,24.3z"/>
	</g>
	<g>
		<path class="st0" d="M113.3,31.4c-2.1,0-4.1-0.5-5.9-1.4c-1.9-1-3.4-2.4-4.4-4l-1.5-2.5l6.4-5.6l-2.2-4.7H103v-12h21.8v9.9
			l-2.7,2.5c0.3,0.3,0.6,0.6,0.8,0.9c1.4,1.8,2.1,3.9,2.1,6.4c0,3-1.3,5.7-3.6,7.7C119.1,30.4,116.4,31.4,113.3,31.4z"/>
	</g>
</g>
<path class="st1" d="M22.7,28.9c0,2.5-0.7,4.5-2,6s-3.3,2.2-6,2.2c-1.9,0-3.6-0.6-5.2-1.8s-2.7-2.9-3.3-4.9l4-2.3l0,0
	c1,2.8,2.5,4.3,4.3,4.2c0.9,0,1.7-0.3,2.2-0.9s0.8-1.5,0.8-2.7v-1.5V4.8h5.2v21.3V28.9z"/>
<path class="st1" d="M30.3,9.5v3.7h9.4V18h-9.4v4.3h10v4.8H25.1V4.7h15.2v4.9h-10V9.5z"/>
<path class="st1" d="M45.8,20.6c1.6,1.5,3.3,2.3,5.2,2.3c0.8,0,1.5-0.2,2.1-0.5s0.8-0.8,0.8-1.3s-0.3-1-0.8-1.4
	c-0.6-0.4-1.7-0.9-3.3-1.5c-2.4-0.9-4-1.7-5-2.4c-1.8-1.3-2.8-3-2.8-5c0-1.9,0.8-3.5,2.3-4.8s3.4-2,5.7-2c2.9,0,5.4,1.1,7.3,3.3
	L54,10.7C52.9,9.6,51.6,9,50.2,9c-0.9,0-1.6,0.2-2.2,0.5c-0.5,0.3-0.8,0.7-0.9,1.1c-0.1,0.6,0.1,1,0.5,1.3s1.4,0.8,2.9,1.4
	c0.5,0.2,0.9,0.3,1.2,0.5c0.7,0.3,1.3,0.6,1.8,0.8s1.1,0.6,1.9,1.1s1.4,0.9,1.9,1.4s0.9,1.1,1.3,1.8c0.4,0.7,0.6,1.5,0.6,2.2
	c0,1.9-0.8,3.4-2.4,4.7c-1.6,1.3-3.5,1.9-5.8,1.9c-1.9,0-3.5-0.4-5-1.1s-2.6-1.7-3.4-2.7L45.8,20.6L45.8,20.6z"/>
<path class="st1" d="M79.6,4.7v14.1c-0.1,2.8-1,5-2.7,6.6s-4,2.4-6.9,2.4s-5.2-0.8-6.9-2.4c-1.7-1.6-2.6-3.8-2.7-6.6V4.7h5.2v13.7
	c0,1.5,0.4,2.6,1.1,3.4S68.6,23,70,23c2.9,0,4.4-1.5,4.4-4.6V4.7H79.6z"/>
<path class="st1" d="M85.4,20.6c1.6,1.5,3.3,2.3,5.2,2.3c0.8,0,1.5-0.2,2.1-0.5s0.8-0.8,0.8-1.3s-0.3-1-0.8-1.4
	c-0.6-0.4-1.7-0.9-3.3-1.5c-2.4-0.9-4-1.7-5-2.4c-1.8-1.3-2.8-3-2.8-5c0-1.9,0.8-3.5,2.3-4.8s3.4-2,5.7-2c2.9,0,5.4,1.1,7.3,3.3
	l-3.3,3.4C92.5,9.6,91.3,9,89.8,9c-0.9,0-1.6,0.2-2.2,0.5c-0.5,0.3-0.8,0.7-0.9,1.1c-0.1,0.6,0.1,1,0.5,1.3s1.4,0.8,2.9,1.4
	c0.5,0.2,0.9,0.3,1.2,0.5c0.7,0.3,1.3,0.6,1.8,0.8s1.1,0.6,1.9,1.1s1.4,0.9,1.9,1.4s0.9,1.1,1.3,1.8c0.4,0.7,0.6,1.5,0.6,2.2
	c0,1.9-0.8,3.4-2.4,4.7s-3.5,1.9-5.8,1.9c-1.9,0-3.5-0.4-5-1.1s-2.6-1.7-3.4-2.7L85.4,20.6L85.4,20.6z"/>
<path class="st1" d="M116.3,14.2c1.6,0.5,2.9,1.3,3.8,2.5c0.9,1.1,1.4,2.6,1.4,4.2c0,2-0.8,3.7-2.4,5s-3.5,2-5.8,2
	c-1.5,0-3-0.3-4.3-1s-2.3-1.6-3-2.7l3.1-2.8c1.2,1.2,2.6,1.8,4.2,1.8c0.7,0,1.4-0.2,2-0.6s1-1.1,1-1.9s-0.3-1.4-1-1.8
	s-1.5-0.6-2.5-0.6h-0.9l-2.1-4.4l4.6-4.2h-8v-5h14.8v4.9L116.3,14.2L116.3,14.2L116.3,14.2z"/>
<path class="st1" d="M102.6,27.8c-0.6,0-1.2-0.2-1.7-0.7s-0.7-1-0.7-1.7c0-0.6,0.2-1.2,0.7-1.6c0.5-0.5,1-0.7,1.7-0.7
	c0.6,0,1.1,0.2,1.6,0.7s0.7,1,0.7,1.6s-0.2,1.2-0.7,1.7C103.7,27.6,103.2,27.8,102.6,27.8L102.6,27.8z"/>
</svg>
